<?xml version="1.0" standalone="no"?>
<!DOCTYPE svg PUBLIC "-//W3C//DTD SVG 20010904//EN"
 "http://www.w3.org/TR/2001/REC-SVG-20010904/DTD/svg10.dtd">
<svg version="1.0" xmlns="http://www.w3.org/2000/svg"
 width="260.000000pt" height="260.000000pt" viewBox="0 0 260.000000 260.000000"
 preserveAspectRatio="xMidYMid meet">
<metadata>
Created by potrace 1.14, written by Peter Selinger 2001-2017
</metadata>
<g transform="translate(0.000000,260.000000) scale(0.100000,-0.100000)"
fill="#000000" stroke="none">
<path d="M1867 1830 c-61 -16 -117 -49 -166 -98 -86 -87 -123 -206 -123 -397
0 -190 37 -307 128 -405 70 -75 181 -120 296 -120 61 0 187 29 238 55 25 13
61 37 78 53 l32 30 0 191 0 191 -185 0 -185 0 0 -60 0 -60 115 0 115 0 0 -98
c0 -90 -2 -100 -23 -120 -35 -33 -102 -52 -181 -52 -163 0 -254 98 -277 297
-18 164 17 340 84 411 41 44 96 65 172 66 98 1 150 -28 187 -104 15 -30 29
-63 32 -72 5 -15 17 -18 77 -18 l72 0 -7 43 c-16 103 -90 201 -186 245 -45 21
-72 26 -155 28 -55 2 -117 -1 -138 -6z"/>
<path d="M407 1823 c-4 -3 -7 -161 -7 -349 l0 -343 -63 6 c-262 24 -382 -239
-155 -337 145 -63 341 5 364 125 3 20 5 172 2 339 l-4 303 22 -47 c12 -26 67
-124 122 -216 55 -93 113 -197 128 -231 l27 -63 56 0 56 0 49 98 c26 53 74
140 106 192 32 52 79 133 104 180 l45 85 -6 -367 -6 -368 76 0 77 0 0 500 0
500 -92 -1 -93 0 -42 -87 c-23 -48 -77 -138 -121 -199 -44 -62 -95 -142 -113
-178 -19 -36 -37 -65 -40 -65 -3 0 -16 23 -30 52 -13 29 -64 109 -112 178 -49
69 -107 164 -130 212 l-42 87 -86 1 c-47 0 -89 -3 -92 -7z"/>
</g>
</svg>
